<svg xmlns="http://www.w3.org/2000/svg" viewBox="0 0 410.39 344.24"><defs><style>.a{fill:#dededd;}.a,.f,.g,.h,.i,.j{stroke:#000;stroke-width:0.5px;}.b{fill:#0093dd;}.c{fill:#f7d34d;}.d{fill:#da251d;}.e,.i{fill:#fff;}.f{fill:#c2d0da;}.h{fill:#1f1a17;}.j{fill:none;}</style></defs><title>provincia-escudo</title><path class="a" d="M292.16,194.17c0,67.76-39.11,122.69-87.35,122.69s-87.35-54.93-87.35-122.69S156.56,71.48,204.81,71.48,292.16,126.41,292.16,194.17Z" transform="translate(0 -0.17)"/><path class="b" d="M103.29,284.66c-13.7-2.81-26.28-8.2-40.86-20.93a172.24,172.24,0,0,1-9.5-18.81L88,261.59A121.86,121.86,0,0,0,103.29,284.66Zm-21.1-33.86L48.57,234q-3.24-8.84-6-18.63l31.8,13.32A145.05,145.05,0,0,0,82.19,250.79Zm-9.91-30.87L40.37,206.78c-1.47-6.21-2.82-12.46-4-18.74l33.25,16C70.28,209.58,71.22,214.92,72.28,219.92Zm-3.37-23.35L35.2,181.07q-1.18-7.31-2.14-15L68.4,183.51C68.4,187.95,68.6,192.44,68.91,196.57Zm5.59-67-51.81-27.8L19.63,82.84l59.08,33.7A106.28,106.28,0,0,0,74.5,129.56ZM70,152.08,27.23,129.93l-2.54-15.73,47.09,26.93C71.21,144.74,70.48,148.44,70,152.08ZM91.66,92l-54-45C50.54,40.39,56.26,38.29,68,45.73c13.68,10,24.43,21.39,36.2,32.31A111.08,111.08,0,0,0,91.66,92Zm18.2-18.61C97.54,60,90.73,44.55,64.07,36.28l15.82-6.43c22.51,5.68,32.31,20.06,43.53,33.47A124.94,124.94,0,0,0,109.86,73.4ZM151.78,50q5-1.69,10.09-3C149.79,33.22,144,24.13,127.6,11.61,116.48,3.46,100.56.85,84.74,7,56.51,19,28,32.27,0,38.11l1,7.2C23.8,40.58,48.16,33.84,75.58,19.79c18.92-9.54,33.1-8.62,47.44.33C134.86,28.47,142.78,39.64,151.78,50Zm-72,235.88c20.33,24.84,45,34.22,74.51,37.46a154.34,154.34,0,0,1-36.59-24l-.43-.24ZM143.09,53.19c-4.22,1.74-8.21,3.71-12.22,5.84-9.41-13-18.95-25.88-36.8-34.63,9.95-3.23,19.5.85,24.69,3.42C130.62,33.91,137.64,46.11,143.09,53.19ZM87.2,98.49,28.89,50.58,9.47,58.47l72.88,49A85.93,85.93,0,0,1,87.2,98.49ZM31.64,157.22,29.26,142.5l39.84,19.72c-.43,4.49-.55,9.07-.88,13.54Z" transform="translate(0 -0.17)"/><path class="b" d="M307.1,284.66c13.7-2.81,26.28-8.2,40.86-20.93a172.24,172.24,0,0,0,9.5-18.81l-35.06,16.67A121.86,121.86,0,0,1,307.1,284.66Zm21.1-33.86L361.82,234q3.24-8.84,6-18.63L336,228.69A145.05,145.05,0,0,1,328.2,250.79Zm9.91-30.87L370,206.78c1.47-6.21,2.82-12.46,4-18.74l-33.25,16C340.12,209.58,339.17,214.92,338.11,219.92Zm3.37-23.35,33.71-15.5q1.18-7.31,2.14-15L342,183.51C342,187.95,341.79,192.44,341.48,196.57Zm-5.59-67,51.81-27.8,3.06-18.93-59.08,33.7A106.29,106.29,0,0,1,335.89,129.56Zm4.5,22.52,42.77-22.16,2.54-15.73L338.6,141.12C339.19,144.74,339.91,148.44,340.39,152.08ZM318.73,92l54-45c-12.89-6.63-18.61-8.73-30.37-1.29-13.68,10-24.43,21.39-36.2,32.31A111.08,111.08,0,0,1,318.73,92ZM300.54,73.4C312.85,60,319.66,44.55,346.32,36.28L330.5,29.85C308,35.53,298.19,49.91,287,63.32A124.94,124.94,0,0,1,300.54,73.4ZM258.61,50q-5-1.69-10.09-3c12.08-13.75,17.92-22.85,34.27-35.37C293.91,3.46,309.84.85,325.66,7c28.23,12,56.77,25.25,84.74,31.08l-1,7.2c-22.82-4.72-47.18-11.47-74.59-25.52-18.92-9.54-33.1-8.62-47.44.33C275.53,28.47,267.61,39.64,258.61,50Zm72,235.88c-20.33,24.84-45,34.22-74.51,37.46a154.34,154.34,0,0,0,36.59-24l.43-.24ZM267.31,53.19c4.22,1.74,8.21,3.71,12.22,5.84,9.41-13,18.95-25.88,36.8-34.63-9.95-3.23-19.5.85-24.69,3.42C279.78,33.91,272.75,46.11,267.31,53.19Zm55.89,45.3L381.5,50.58l19.42,7.89-72.88,49A85.93,85.93,0,0,0,323.19,98.49Zm55.56,58.73,2.38-14.72-39.84,19.72c.43,4.49.55,9.07.88,13.54Z" transform="translate(0 -0.17)"/><path class="b" d="M179.74,44.59s9.54-14.81,19.66-24.52c9.85-9.45,12.49-9.08,23.6-8.79s12.72-.81,21.28-3.7c8.12-2.74,13,2.31,13,2.31l4.63-3.47S258,.29,251.92.17c-6.46-.12-5.38,2.43-16.43,4.16S222.25.58,207,6.42C189.87,13,174.18,38.34,174.18,38.34Z" transform="translate(0 -0.17)"/><path class="b" d="M219.53,43.9h9.25c6.06-13.1,10-28.09,25.68-30.31C244.59,7.76,228.41,15.51,219.53,43.9Z" transform="translate(0 -0.17)"/><path class="c" d="M233.47,164.56l52.94-14.23a149.75,149.75,0,0,0-4.73-14.46l-49.08,22.6A26.37,26.37,0,0,1,233.47,164.56Zm-2.31-10.4,42.28-35.85A119.54,119.54,0,0,0,266,106.67l-38.25,41.54A34.31,34.31,0,0,1,231.16,154.15Zm-7.31-10,28.8-52.6a84.62,84.62,0,0,0-11.36-8.85l-23.71,57.25A36.39,36.39,0,0,1,223.85,144.11Zm-10.77-5.86,16.18-61.89a75.84,75.84,0,0,0-15.78-4.27l-6.38,65.2A23.56,23.56,0,0,1,213.08,138.25Zm-11.18-1c-1.67.19-3.33.5-5,.86L180.34,76.51a58.82,58.82,0,0,1,15.45-4.38Zm-9.56,2.57L167.75,83a69.53,69.53,0,0,0-11.29,9.19l28.81,52.11A29.08,29.08,0,0,1,192.35,139.81ZM143.8,106.54l38.7,40.61a28.23,28.23,0,0,0-4.4,6.9l-42.18-34.82C138.18,114.65,142,108.45,143.8,106.54ZM128,135.72l48.51,22.75a27.72,27.72,0,0,0-.87,6.9l-52.41-15A128.11,128.11,0,0,1,128,135.72ZM176,169.4a24.92,24.92,0,0,0,.94,4l-58.23,0q.62-5.11,1.54-10.07ZM289.32,163q.95,5.09,1.59,10.34l-58.57.08a25.92,25.92,0,0,0,1.06-5.12Z" transform="translate(0 -0.17)"/><path class="d" d="M204.62,58.16c44.74.57,70.4,23.46,87.89,57.45,0,0-1.86-7.07,7.79-21.75,7,16.4-.31,21.59-3.24,32.39-1.62,10.15.8,14.92,4.63,21.28-3.36-8.16,3.21-18.87,12-27.76,2.86,5.85,2.64,21.07-5.55,31.46s-10.43,18.72-9.72,30.07c0,.35,6.85-10.79,12.12-13.77s6.44-4.46,9.63-7.51c0,0,3.11,13.09-10.14,22s-11.45,33.37-11.45,33.37c-.36-.22,3.35-10.78,13.41-14.07a33.45,33.45,0,0,0,12.76-7.52c-3.77,10.94-4.64,18.62-16,24.54-27,17.57-21.8,30.85-24.21,45.15-.2-.09,2.93-13.62,16.69-17.67a76.1,76.1,0,0,0,17.34-7.52c-5.76,14.22-12.37,26.74-21.59,34-15.17,11.7-22.43,13.52-36,19.3S227.07,311,227.6,328c2.89,18.51,22.67,16.62,34.35,15.7-22.76-2.5-32.66-16.84-15.7-31.41,9.94-8.44,22.24-15.11,35.66-20.94,48.18-25.08,43.14-55.56,45.48-73.29-3.78,7.62-6.64,13.31-14.4,15.7s-10.74,3.48-14.4,5.56c1.26-3.54,5.17-9.82,17.76-16.17,18.71-15.14,14.59-29.35,14-49.59-9.27,14.21-15.27,19.26-20,20.94-.17-6.09,1.51-4.66,10.47-13.74s5.36-27.37,5.56-39.59c-4.84,8.6-7.13,14-13.74,16.36,3-7.79,6.7-11.8,8.51-24.86s-1.76-21.06-4.58-30.75c-2.78,8.33-7,14.43-11.12,18,4.24-6.67,3.82-14.38,3.27-21.92-2.34-13.75-7.86-17.21-13.09-23.23,1.18,9.24.68,18.32-6.54,24.86-27.92-43-55.18-44.49-84-45.8-28.85,1.31-56.11,2.81-84,45.8-7.23-6.54-7.72-15.62-6.54-24.86-5.23,6-10.75,9.48-13.09,23.23-.55,7.54-1,15.25,3.27,21.92-4.16-3.57-8.35-9.67-11.12-18-2.82,9.7-6.38,17.69-4.58,30.75s5.48,17.08,8.51,24.86c-6.61-2.38-8.9-7.76-13.74-16.36.2,12.21-3.4,30.51,5.56,39.59s10.64,7.65,10.47,13.74c-4.69-1.68-10.69-6.73-20-20.94-.61,20.24-4.73,34.45,14,49.59,12.59,6.35,16.5,12.63,17.76,16.17-3.66-2.08-6.64-3.17-14.4-5.56s-10.62-8.09-14.4-15.7c2.33,17.72-2.71,48.21,45.48,73.29,13.42,5.83,25.72,12.5,35.66,20.94,17,14.57,7.05,28.9-15.7,31.41,11.68.92,31.46,2.8,34.35-15.7.53-17-19.81-30.53-33.37-36.32s-20.81-7.6-36-19.3c-9.23-7.28-15.83-19.81-21.59-34a76.1,76.1,0,0,0,17.34,7.52c13.75,4,16.89,17.58,16.69,17.67-2.41-14.3,2.8-27.57-24.21-45.15-11.39-5.92-12.26-13.6-16-24.54a33.45,33.45,0,0,0,12.76,7.52c10.06,3.29,13.77,13.85,13.41,14.07,0,0,1.8-24.43-11.45-33.37S90,160,90,160c3.19,3.05,4.35,4.53,9.63,7.51s12.1,14.13,12.12,13.77c.72-11.36-1.52-19.68-9.72-30.07s-8.41-25.61-5.55-31.46c8.82,8.89,15.39,19.6,12,27.76,3.82-6.36,6.24-11.14,4.63-21.28-2.92-10.8-10.26-16-3.24-32.39,9.64,14.68,7.79,21.75,7.79,21.75C135.14,81.62,159.88,58.73,204.62,58.16Z" transform="translate(0 -0.17)"/><path class="e" d="M292.16,194.17c0,67.72-39.13,122.69-87.35,122.69s-87.35-55-87.35-122.69q0-2,0-3.93c60.12-11.87,85-37.44,91.57-39.21,3.54.6,17.26,7.16,37,16.18,12.7,5.8,28.52,9.34,44.34,11.92C290.92,184.48,292.16,188.62,292.16,194.17Z" transform="translate(0 -0.17)"/><path class="b" d="M206.81,324.37a47.79,47.79,0,0,0,13-2.17c-.48,8.77.14,17.09,8.79,22.21H207Zm-4.4,20H180.66c5.14-4.92,10.28-9.83,8.79-22a72.54,72.54,0,0,0,13,1.9Z" transform="translate(0 -0.17)"/><path class="f" d="M292.16,194.17c0,67.72-39.13,122.69-87.35,122.69-47.37,0-86-53-87.32-119.12,0-2.45-.42-4.39,0-5.85l174.57-.4C292.13,192.36,292.16,193.24,292.16,194.17Z" transform="translate(0 -0.17)"/><path class="g" d="M289,226.86c.28-1.4.59-2.77.83-4.19l-66.08,2.1Zm1.15-6.15q.33-2.08.6-4.18l-76.73,1Zm.89-6.5q.23-2,.42-3.93l-72.37,1.15Zm.62-6.24q.15-1.9.26-3.81l-66.7,1.39Zm.39-6.37q.07-1.55.11-3.12l-57.77.77Zm.15-5.2q0-1.15,0-2.3l-46.38.9Z" transform="translate(0 -0.17)"/><path class="h" d="M120.67,226.93c-.28-1.4-.59-2.77-.83-4.19l66.08,2.1Zm-1.15-6.15q-.33-2.08-.6-4.18l76.73,1Zm-.89-6.5q-.23-2-.42-3.93l72.37,1.15ZM118,208q-.15-1.9-.26-3.81l66.7,1.39Zm-.39-6.37q-.07-1.55-.11-3.12l57.77.77Zm-.15-5.2q0-1.15,0-2.3l46.38.9Zm9.38-4.87c13.42-3.61,26.85-7.19,38.78-13.29,13.67,5.28,21.41,2.74,30.31.2l20.36-9.35c22.9,7.18,46.92,12,74.12,10,.45,4.69,1.46,8.46,1.7,13.06Z" transform="translate(0 -0.17)"/><path class="g" d="M162.41,250.53l14,0c.18-5.34-1.55-13.65-6.18-15.49s-6.37-1.66-12.24.39l-14.12,1.15,15,1.41.31,1.57C161.91,245.68,162.12,248,162.41,250.53Z" transform="translate(0 -0.17)"/><path class="g" d="M157.44,260.24c-2.33,3.07-11.28,9.46-6.37,23.13,3.64,4.3,6.15,4.21,8.48,1.9Z" transform="translate(0 -0.17)"/><path class="g" d="M245.34,302.86c-12.12,8.94-25.91,14-40.53,14-15.93,0-30.88-6-43.74-16.48,1.26-18.32,65.76-19.73,90.73-3.34C253,297.81,245.08,301.37,245.34,302.86Z" transform="translate(0 -0.17)"/><path class="g" d="M156.6,282.64c2,5.91,2.68,12.87,6.94,17.12l2.54-2.78Z" transform="translate(0 -0.17)"/><path class="i" d="M161.85,248.21c-14.29,24.48-4.68,39.4,3.34,48.81l17-6.66c.18-10.18,2.49-26.09-2.94-40.24-2.87.16-4.67-4-6.3-3C168.66,249.67,164.22,248.59,161.85,248.21Z" transform="translate(0 -0.17)"/><path class="e" d="M166.09,236.72a1.39,1.39,0,1,1-2.78,0h0a1.39,1.39,0,1,1,2.78,0Z" transform="translate(0 -0.17)"/><path class="g" d="M187.76,249.67l14,0c.18-5.34-.42-11.32-4.1-13.87s-6.65-2.79-11.31-2.16l-14.82-5.1,14.55,7.65.08,4.11C188.88,246.44,187.46,247.18,187.76,249.67Z" transform="translate(0 -0.17)"/><path class="i" d="M186.76,244.81c-8.79,7.91-10.08,32-5,45.57,5.06,10.93,26.08,1.06,24.9-3.89l-4.4-39.58c-1.81-2-3.84.5-8.17.35C190.84,247.17,187.81,244.06,186.76,244.81Z" transform="translate(0 -0.17)"/><path class="g" d="M180.51,255c-2.33,3.07-3.42,12.7-2.21,26.37,3.64,4.3,7.77-1.57,7.78-5.51C185.75,266.1,183.2,261.82,180.51,255Z" transform="translate(0 -0.17)"/><path class="g" d="M202.64,247.48c-.12,9.46-2.3,16.63-6.48,25.45-2.17,7.66.83,10.36,4.16,12-.45-4.57.48-8.52,5.55-10.64l.69-24.06Z" transform="translate(0 -0.17)"/><path class="e" d="M192.92,236.37a1.39,1.39,0,1,1-2.78,0h0a1.39,1.39,0,1,1,2.78,0Z" transform="translate(0 -0.17)"/><path class="f" d="M170.13,297.88c-1.1.78-1.72,2-.65,2.94s3.8,1.59,4.91.82.57-3-.49-3.93A3.08,3.08,0,0,0,170.13,297.88Z" transform="translate(0 -0.17)"/><path class="f" d="M179.59,295.21c-1.1.78-2,4.78-1,5.73s6.26,1.27,7.36.49.08-4.62-1-5.56S180.69,294.44,179.59,295.21Z" transform="translate(0 -0.17)"/><path class="f" d="M193.11,297.53c-2,1.15-1.15,3.31.16,5.07,1.56,1.45,6.63,1.89,9,0a3.25,3.25,0,0,0-1-4.58C199.12,296.55,195.11,296.38,193.11,297.53Z" transform="translate(0 -0.17)"/><path class="f" d="M216.17,295.4c-1.1.78-1.23,4.78-.16,5.73s6.58,0,7.69-.82,1.72-4.13.65-5.07S217.27,294.62,216.17,295.4Z" transform="translate(0 -0.17)"/><path class="f" d="M231.55,292.95c-1.1.78-2,4.78-1,5.73s6.26,1.27,7.36.49.08-4.62-1-5.56S232.65,292.17,231.55,292.95Z" transform="translate(0 -0.17)"/><path class="f" d="M207.83,290.17c-2.09.78-3.52,10.18-2.45,11.12s4.78.29,5.89-.49C212.49,297.28,210.15,292,207.83,290.17Z" transform="translate(0 -0.17)"/><path class="g" d="M255.73,283.34c-2,5.91-2.68,12.87-6.94,17.12l-2.54-2.78Z" transform="translate(0 -0.17)"/><path class="g" d="M250.6,250.16l-14,0c-.18-5.34,1.55-13.65,6.18-15.49s6.37-1.66,12.24.39l14.12,1.15-15,1.41-.31,1.57C251.1,245.32,250.89,247.68,250.6,250.16Z" transform="translate(0 -0.17)"/><path class="g" d="M255.56,259.88c2.33,3.07,11.28,9.46,6.37,23.13-3.64,4.3-6.15,4.21-8.48,1.9Z" transform="translate(0 -0.17)"/><path class="i" d="M251.15,247.84c14.29,24.48,4.68,39.4-3.34,48.81l-17-6.66c-.18-10.18-2.49-26.09,2.94-40.24,2.87.16,4.67-4,6.3-3C244.35,249.31,248.79,248.23,251.15,247.84Z" transform="translate(0 -0.17)"/><path class="e" d="M246.92,236.36a1.39,1.39,0,1,0,2.78,0h0a1.39,1.39,0,1,0-2.78,0Z" transform="translate(0 -0.17)"/><path class="g" d="M225.25,249.31l-14,0c-.18-5.34.42-11.32,4.1-13.87s6.65-2.79,11.31-2.16l14.82-5.1-14.55,7.65-.08,4.11C224.13,246.08,225.54,246.82,225.25,249.31Z" transform="translate(0 -0.17)"/><path class="i" d="M226.25,244.45c8.79,7.91,10.08,32,5,45.57-5.06,10.93-26.08,1.06-24.9-3.89-2.2-13.19,2.93-26.38,4.4-39.58,1.81-2,3.84.5,8.17.35C222.17,246.81,225.2,243.7,226.25,244.45Z" transform="translate(0 -0.17)"/><path class="g" d="M232.49,254.63c2.33,3.07,3.42,12.7,2.21,26.37-3.64,4.3-7.77-1.57-7.78-5.51C227.26,265.74,229.81,261.46,232.49,254.63Z" transform="translate(0 -0.17)"/><path class="g" d="M210.37,247.12c.12,9.46,2.3,16.63,6.48,25.45,2.17,7.66-.83,10.36-4.16,12,.45-4.57-.48-8.52-5.55-10.64l-.69-24.06Z" transform="translate(0 -0.17)"/><path class="e" d="M220.08,236a1.39,1.39,0,1,0,2.78,0h0a1.39,1.39,0,1,0-2.78,0Z" transform="translate(0 -0.17)"/><path class="j" d="M292,194.17c0,67.76-39.11,122.69-87.35,122.69S117.3,261.93,117.3,194.17,156.41,71.48,204.66,71.48,292,126.41,292,194.17Z" transform="translate(0 -0.17)"/></svg>